<svg width="16" height="16" viewBox="0 0 16 16" fill="none" xmlns="http://www.w3.org/2000/svg">
<path d="M8 14.6667C7.07778 14.6667 6.21111 14.4917 5.4 14.1417C4.58889 13.7917 3.88333 13.3167 3.28333 12.7167C2.68333 12.1167 2.20833 11.4111 1.85833 10.6C1.50833 9.7889 1.33333 8.92223 1.33333 8.00001C1.33333 7.07779 1.50833 6.21112 1.85833 5.40001C2.20833 4.5889 2.68333 3.88334 3.28333 3.28334C3.88333 2.68334 4.58889 2.20834 5.4 1.85834C6.21111 1.50834 7.07778 1.33334 8 1.33334H8.66666V6.85001C8.86666 6.97223 9.02778 7.13057 9.15 7.32501C9.27222 7.51945 9.33333 7.74445 9.33333 8.00001C9.33333 8.36668 9.20278 8.68057 8.94166 8.94168C8.68055 9.20279 8.36666 9.33334 8 9.33334C7.63333 9.33334 7.31944 9.20279 7.05833 8.94168C6.79722 8.68057 6.66667 8.36668 6.66667 8.00001C6.66667 7.74445 6.72778 7.51668 6.85 7.31668C6.97222 7.11668 7.13333 6.96112 7.33333 6.85001V5.41668C6.75555 5.57223 6.27778 5.88612 5.9 6.35834C5.52222 6.83057 5.33333 7.37779 5.33333 8.00001C5.33333 8.73334 5.59444 9.36112 6.11667 9.88334C6.63889 10.4056 7.26667 10.6667 8 10.6667C8.73333 10.6667 9.36111 10.4056 9.88333 9.88334C10.4056 9.36112 10.6667 8.73334 10.6667 8.00001C10.6667 7.60001 10.5861 7.23057 10.425 6.89168C10.2639 6.55279 10.0444 6.25557 9.76666 6.00001L10.7167 5.05001C11.1056 5.41668 11.4167 5.85279 11.65 6.35834C11.8833 6.8639 12 7.41112 12 8.00001C12 9.11112 11.6111 10.0556 10.8333 10.8333C10.0556 11.6111 9.11111 12 8 12C6.88889 12 5.94444 11.6111 5.16667 10.8333C4.38889 10.0556 4 9.11112 4 8.00001C4 7.00001 4.31667 6.13057 4.95 5.39168C5.58333 4.65279 6.37778 4.20557 7.33333 4.05001V2.70001C6.01111 2.86668 4.90278 3.45001 4.00833 4.45001C3.11389 5.45001 2.66667 6.63334 2.66667 8.00001C2.66667 9.4889 3.18333 10.75 4.21667 11.7833C5.25 12.8167 6.51111 13.3333 8 13.3333C9.48889 13.3333 10.75 12.8167 11.7833 11.7833C12.8167 10.75 13.3333 9.4889 13.3333 8.00001C13.3333 7.23334 13.1833 6.51668 12.8833 5.85001C12.5833 5.18334 12.1722 4.60557 11.65 4.11668L12.6 3.16668C13.2333 3.77779 13.7361 4.49723 14.1083 5.32501C14.4806 6.15279 14.6667 7.04445 14.6667 8.00001C14.6667 8.92223 14.4917 9.7889 14.1417 10.6C13.7917 11.4111 13.3167 12.1167 12.7167 12.7167C12.1167 13.3167 11.4111 13.7917 10.6 14.1417C9.78889 14.4917 8.92222 14.6667 8 14.6667Z" fill="#1F2937"/>
</svg>
