<svg width="16" height="16" viewBox="0 0 16 16" fill="none" xmlns="http://www.w3.org/2000/svg">
<path d="M8 8.00002C7.26666 8.00002 6.63889 7.73891 6.11666 7.21669C5.59444 6.69446 5.33333 6.06669 5.33333 5.33335C5.33333 4.60002 5.59444 3.97224 6.11666 3.45002C6.63889 2.9278 7.26666 2.66669 8 2.66669C8.73333 2.66669 9.36111 2.9278 9.88333 3.45002C10.4056 3.97224 10.6667 4.60002 10.6667 5.33335C10.6667 6.06669 10.4056 6.69446 9.88333 7.21669C9.36111 7.73891 8.73333 8.00002 8 8.00002ZM2.66666 13.3334V11.4667C2.66666 11.0889 2.76389 10.7417 2.95833 10.425C3.15278 10.1084 3.41111 9.86669 3.73333 9.70002C4.42222 9.35558 5.12222 9.09724 5.83333 8.92502C6.54444 8.7528 7.26666 8.66669 8 8.66669C8.73333 8.66669 9.45555 8.7528 10.1667 8.92502C10.8778 9.09724 11.5778 9.35558 12.2667 9.70002C12.5889 9.86669 12.8472 10.1084 13.0417 10.425C13.2361 10.7417 13.3333 11.0889 13.3333 11.4667V13.3334H2.66666ZM4 12H12V11.4667C12 11.3445 11.9694 11.2334 11.9083 11.1334C11.8472 11.0334 11.7667 10.9556 11.6667 10.9C11.0667 10.6 10.4611 10.375 9.85 10.225C9.23889 10.075 8.62222 10 8 10C7.37778 10 6.76111 10.075 6.15 10.225C5.53889 10.375 4.93333 10.6 4.33333 10.9C4.23333 10.9556 4.15278 11.0334 4.09166 11.1334C4.03055 11.2334 4 11.3445 4 11.4667V12ZM8 6.66669C8.36666 6.66669 8.68055 6.53613 8.94166 6.27502C9.20278 6.01391 9.33333 5.70002 9.33333 5.33335C9.33333 4.96669 9.20278 4.6528 8.94166 4.39169C8.68055 4.13058 8.36666 4.00002 8 4.00002C7.63333 4.00002 7.31944 4.13058 7.05833 4.39169C6.79722 4.6528 6.66666 4.96669 6.66666 5.33335C6.66666 5.70002 6.79722 6.01391 7.05833 6.27502C7.31944 6.53613 7.63333 6.66669 8 6.66669Z" fill="#1F2937"/>
</svg>
