<svg width="16" height="16" viewBox="0 0 16 16" fill="none" xmlns="http://www.w3.org/2000/svg">
<path d="M8 14.6667C7.07778 14.6667 6.21111 14.4917 5.4 14.1417C4.58889 13.7917 3.88333 13.3167 3.28333 12.7167C2.68333 12.1167 2.20833 11.4111 1.85833 10.6C1.50833 9.7889 1.33333 8.92223 1.33333 8.00001C1.33333 7.07779 1.50833 6.21112 1.85833 5.40001C2.20833 4.5889 2.68333 3.88334 3.28333 3.28334C3.88333 2.68334 4.58889 2.20834 5.4 1.85834C6.21111 1.50834 7.07778 1.33334 8 1.33334C8.72222 1.33334 9.40555 1.4389 10.05 1.65001C10.6944 1.86112 11.2889 2.15557 11.8333 2.53334L10.8667 3.51668C10.4444 3.25001 9.99444 3.04168 9.51666 2.89168C9.03889 2.74168 8.53333 2.66668 8 2.66668C6.52222 2.66668 5.26389 3.18612 4.225 4.22501C3.18611 5.2639 2.66667 6.52223 2.66667 8.00001C2.66667 9.47779 3.18611 10.7361 4.225 11.775C5.26389 12.8139 6.52222 13.3333 8 13.3333C9.47778 13.3333 10.7361 12.8139 11.775 11.775C12.8139 10.7361 13.3333 9.47779 13.3333 8.00001C13.3333 7.80001 13.3222 7.60001 13.3 7.40001C13.2778 7.20001 13.2444 7.00557 13.2 6.81668L14.2833 5.73334C14.4056 6.0889 14.5 6.45557 14.5667 6.83334C14.6333 7.21112 14.6667 7.60001 14.6667 8.00001C14.6667 8.92223 14.4917 9.7889 14.1417 10.6C13.7917 11.4111 13.3167 12.1167 12.7167 12.7167C12.1167 13.3167 11.4111 13.7917 10.6 14.1417C9.78889 14.4917 8.92222 14.6667 8 14.6667ZM7.06667 11.0667L4.23333 8.23334L5.16667 7.30001L7.06667 9.20001L13.7333 2.51668L14.6667 3.45001L7.06667 11.0667Z" fill="#1F2937"/>
</svg>
